<svg width="456" height="192" viewBox="0 0 456 192" fill="none" xmlns="http://www.w3.org/2000/svg">
<path d="M66.66 44.0001V30.8601" stroke="#6366F1" stroke-width="4" stroke-linecap="round" stroke-linejoin="round"/>
<path d="M70.66 22H70.68" stroke="#6366F1" stroke-width="4" stroke-linecap="round" stroke-linejoin="round"/>
<path d="M70.66 14H70.68" stroke="#6366F1" stroke-width="4" stroke-linecap="round" stroke-linejoin="round"/>
<path d="M74.66 30.8601V44.0001" stroke="#6366F1" stroke-width="4" stroke-linecap="round" stroke-linejoin="round"/>
<path d="M76.66 32C74.929 30.7018 72.8237 30 70.66 30C68.4963 30 66.391 30.7018 64.66 32" stroke="#6366F1" stroke-width="4" stroke-linecap="round" stroke-linejoin="round"/>
<path d="M78.66 22H78.68" stroke="#6366F1" stroke-width="4" stroke-linecap="round" stroke-linejoin="round"/>
<path d="M78.66 14H78.68" stroke="#6366F1" stroke-width="4" stroke-linecap="round" stroke-linejoin="round"/>
<path d="M62.66 22H62.68" stroke="#6366F1" stroke-width="4" stroke-linecap="round" stroke-linejoin="round"/>
<path d="M62.66 14H62.68" stroke="#6366F1" stroke-width="4" stroke-linecap="round" stroke-linejoin="round"/>
<path d="M82.66 4H58.66C56.4509 4 54.66 5.79086 54.66 8V40C54.66 42.2091 56.4509 44 58.66 44H82.66C84.8691 44 86.66 42.2091 86.66 40V8C86.66 5.79086 84.8691 4 82.66 4Z" stroke="#6366F1" stroke-width="4" stroke-linecap="round" stroke-linejoin="round"/>
<path d="M241.98 34H245.98C247.18 34 247.98 33.2 247.98 32V26C247.98 24.2 246.58 22.6 244.98 22.2C241.38 21.2 235.98 20 235.98 20C235.98 20 233.38 17.2 231.58 15.4C230.58 14.6 229.38 14 227.98 14H213.98C212.78 14 211.78 14.8 211.18 15.8L208.38 21.6C208.115 22.3724 207.98 23.1834 207.98 24V32C207.98 33.2 208.78 34 209.98 34H213.98" stroke="#6366F1" stroke-width="4" stroke-linecap="round" stroke-linejoin="round"/>
<path d="M217.98 38C220.189 38 221.98 36.2091 221.98 34C221.98 31.7909 220.189 30 217.98 30C215.771 30 213.98 31.7909 213.98 34C213.98 36.2091 215.771 38 217.98 38Z" stroke="#6366F1" stroke-width="4" stroke-linecap="round" stroke-linejoin="round"/>
<path d="M221.98 34H233.98" stroke="#6366F1" stroke-width="4" stroke-linecap="round" stroke-linejoin="round"/>
<path d="M237.98 38C240.189 38 241.98 36.2091 241.98 34C241.98 31.7909 240.189 30 237.98 30C235.771 30 233.98 31.7909 233.98 34C233.98 36.2091 235.771 38 237.98 38Z" stroke="#6366F1" stroke-width="4" stroke-linecap="round" stroke-linejoin="round"/>
<path d="M385.31 44C396.356 44 405.31 35.0457 405.31 24C405.31 12.9543 396.356 4 385.31 4C374.264 4 365.31 12.9543 365.31 24C365.31 35.0457 374.264 44 385.31 44Z" stroke="#6366F1" stroke-width="4" stroke-linecap="round" stroke-linejoin="round"/>
<path d="M379.31 34V14H387.31C388.901 14 390.427 14.6321 391.553 15.7574C392.678 16.8826 393.31 18.4087 393.31 20C393.31 21.5913 392.678 23.1174 391.553 24.2426C390.427 25.3679 388.901 26 387.31 26H379.31" stroke="#6366F1" stroke-width="4" stroke-linecap="round" stroke-linejoin="round"/>
<path d="M66.66 68V72" stroke="#6366F1" stroke-width="4" stroke-linecap="round" stroke-linejoin="round"/>
<path d="M74.66 68V72" stroke="#6366F1" stroke-width="4" stroke-linecap="round" stroke-linejoin="round"/>
<path d="M78.66 80C79.1904 80 79.6991 80.2107 80.0742 80.5858C80.4493 80.9609 80.66 81.4696 80.66 82V98C80.66 100.122 79.8171 102.157 78.3169 103.657C76.8166 105.157 74.7817 106 72.66 106H60.66C58.5383 106 56.5034 105.157 55.0031 103.657C53.5029 102.157 52.66 100.122 52.66 98V82C52.66 81.4696 52.8707 80.9609 53.2458 80.5858C53.6209 80.2107 54.1296 80 54.66 80H82.66C84.7817 80 86.8166 80.8428 88.3169 82.3431C89.8171 83.8434 90.66 85.8783 90.66 88C90.66 90.1217 89.8171 92.1566 88.3169 93.6568C86.8166 95.1571 84.7817 96 82.66 96H80.66" stroke="#6366F1" stroke-width="4" stroke-linecap="round" stroke-linejoin="round"/>
<path d="M58.66 68V72" stroke="#6366F1" stroke-width="4" stroke-linecap="round" stroke-linejoin="round"/>
<path d="M203.959 107.579C204.351 108.568 204.438 109.652 204.209 110.691L201.369 119.464C201.278 119.909 201.301 120.37 201.438 120.803C201.575 121.236 201.82 121.627 202.15 121.939C202.48 122.251 202.884 122.474 203.325 122.586C203.765 122.698 204.226 122.695 204.665 122.579L213.767 119.917C214.747 119.723 215.763 119.808 216.697 120.163C222.392 122.822 228.842 123.385 234.911 121.751C240.98 120.118 246.277 116.394 249.867 111.236C253.458 106.078 255.111 99.8172 254.535 93.5589C253.96 87.3006 251.193 81.4467 246.722 77.0299C242.251 72.6132 236.363 69.9175 230.098 69.4185C223.834 68.9194 217.594 70.6491 212.48 74.3023C207.366 77.9555 203.707 83.2975 202.148 89.3858C200.589 95.474 201.23 101.917 203.959 107.579Z" stroke="#8B5CF6" stroke-width="5.33333" stroke-linecap="round" stroke-linejoin="round"/>
<path d="M396.91 102.4L393.31 86L400.31 79C403.31 76 404.31 72 403.31 70C401.31 69 397.31 70 394.31 73L387.31 80L370.91 76.4C369.91 76.2 369.11 76.6 368.71 77.4L368.11 78.4C367.71 79.4 367.91 80.4 368.71 81L379.31 88L375.31 94H369.31L367.31 96L373.31 100L377.31 106L379.31 104V98L385.31 94L392.31 104.6C392.91 105.4 393.91 105.6 394.91 105.2L395.91 104.8C396.71 104.2 397.11 103.4 396.91 102.4Z" stroke="#6366F1" stroke-width="4" stroke-linecap="round" stroke-linejoin="round"/>
<path d="M86.66 164C86.66 173.986 75.582 184.386 71.862 187.598C71.5154 187.859 71.0936 187.999 70.66 187.999C70.2264 187.999 69.8046 187.859 69.458 187.598C65.738 184.386 54.66 173.986 54.66 164C54.66 159.757 56.3457 155.687 59.3463 152.686C62.3469 149.686 66.4165 148 70.66 148C74.9035 148 78.9731 149.686 81.9737 152.686C84.9743 155.687 86.66 159.757 86.66 164Z" stroke="#6366F1" stroke-width="4" stroke-linecap="round" stroke-linejoin="round"/>
<path d="M70.66 170C73.9737 170 76.66 167.314 76.66 164C76.66 160.686 73.9737 158 70.66 158C67.3463 158 64.66 160.686 64.66 164C64.66 167.314 67.3463 170 70.66 170Z" stroke="#6366F1" stroke-width="4" stroke-linecap="round" stroke-linejoin="round"/>
<path d="M227.98 160C237.921 160 245.98 157.314 245.98 154C245.98 150.686 237.921 148 227.98 148C218.039 148 209.98 150.686 209.98 154C209.98 157.314 218.039 160 227.98 160Z" stroke="#6366F1" stroke-width="4" stroke-linecap="round" stroke-linejoin="round"/>
<path d="M209.98 154V182C209.98 183.591 211.876 185.117 215.252 186.243C218.628 187.368 223.206 188 227.98 188C232.754 188 237.332 187.368 240.708 186.243C244.084 185.117 245.98 183.591 245.98 182V154" stroke="#6366F1" stroke-width="4" stroke-linecap="round" stroke-linejoin="round"/>
<path d="M209.98 168C209.98 169.591 211.876 171.117 215.252 172.243C218.628 173.368 223.206 174 227.98 174C232.754 174 237.332 173.368 240.708 172.243C244.084 171.117 245.98 169.591 245.98 168" stroke="#6366F1" stroke-width="4" stroke-linecap="round" stroke-linejoin="round"/>
<path d="M367.31 150V182C367.31 183.061 367.731 184.078 368.482 184.828C369.232 185.579 370.249 186 371.31 186H403.31" stroke="#6366F1" stroke-width="4" stroke-linecap="round" stroke-linejoin="round"/>
<path d="M397.31 178V162" stroke="#6366F1" stroke-width="4" stroke-linecap="round" stroke-linejoin="round"/>
<path d="M387.31 178V154" stroke="#6366F1" stroke-width="4" stroke-linecap="round" stroke-linejoin="round"/>
<path d="M377.31 178V172" stroke="#6366F1" stroke-width="4" stroke-linecap="round" stroke-linejoin="round"/>
</svg>
