<svg width="160" height="64" viewBox="0 0 160 64" fill="none" xmlns="http://www.w3.org/2000/svg">
<rect x="55.5938" width="48" height="48" rx="10" fill="#6366F1" fill-opacity="0.1"/>
<path d="M78.6108 14.814C78.6537 14.5846 78.7754 14.3774 78.9549 14.2283C79.1344 14.0792 79.3605 13.9976 79.5938 13.9976C79.8272 13.9976 80.0532 14.0792 80.2327 14.2283C80.4123 14.3774 80.534 14.5846 80.5768 14.814L81.6278 20.372C81.7025 20.7671 81.8945 21.1306 82.1789 21.4149C82.4632 21.6993 82.8267 21.8913 83.2218 21.966L88.7798 23.017C89.0092 23.0598 89.2164 23.1815 89.3655 23.3611C89.5146 23.5406 89.5962 23.7666 89.5962 24C89.5962 24.2333 89.5146 24.4593 89.3655 24.6389C89.2164 24.8184 89.0092 24.9401 88.7798 24.983L83.2218 26.034C82.8267 26.1086 82.4632 26.3006 82.1789 26.585C81.8945 26.8693 81.7025 27.2328 81.6278 27.628L80.5768 33.186C80.534 33.4153 80.4123 33.6225 80.2327 33.7716C80.0532 33.9207 79.8272 34.0023 79.5938 34.0023C79.3605 34.0023 79.1344 33.9207 78.9549 33.7716C78.7754 33.6225 78.6537 33.4153 78.6108 33.186L77.5598 27.628C77.4852 27.2328 77.2931 26.8693 77.0088 26.585C76.7244 26.3006 76.361 26.1086 75.9658 26.034L70.4078 24.983C70.1784 24.9401 69.9712 24.8184 69.8221 24.6389C69.673 24.4593 69.5914 24.2333 69.5914 24C69.5914 23.7666 69.673 23.5406 69.8221 23.3611C69.9712 23.1815 70.1784 23.0598 70.4078 23.017L75.9658 21.966C76.361 21.8913 76.7244 21.6993 77.0088 21.4149C77.2931 21.1306 77.4852 20.7671 77.5598 20.372L78.6108 14.814Z" stroke="#6366F1" stroke-width="2" stroke-linecap="round" stroke-linejoin="round"/>
<path d="M87.5938 14V18" stroke="#6366F1" stroke-width="2" stroke-linecap="round" stroke-linejoin="round"/>
<path d="M89.5938 16H85.5938" stroke="#6366F1" stroke-width="2" stroke-linecap="round" stroke-linejoin="round"/>
<path d="M71.5938 34C72.6984 34 73.5938 33.1046 73.5938 32C73.5938 30.8954 72.6984 30 71.5938 30C70.4892 30 69.5938 30.8954 69.5938 32C69.5938 33.1046 70.4892 34 71.5938 34Z" stroke="#6366F1" stroke-width="2" stroke-linecap="round" stroke-linejoin="round"/>
</svg>
