<svg width="160" height="64" viewBox="0 0 160 64" fill="none" xmlns="http://www.w3.org/2000/svg">
<rect x="55.5938" width="48" height="48" rx="10" fill="#6366F1" fill-opacity="0.1"/>
<path d="M75.5938 34C76.1461 34 76.5938 33.5523 76.5938 33C76.5938 32.4477 76.1461 32 75.5938 32C75.0415 32 74.5938 32.4477 74.5938 33C74.5938 33.5523 75.0415 34 75.5938 34Z" stroke="#6366F1" stroke-width="2" stroke-linecap="round" stroke-linejoin="round"/>
<path d="M86.5938 34C87.1461 34 87.5938 33.5523 87.5938 33C87.5938 32.4477 87.1461 32 86.5938 32C86.0415 32 85.5938 32.4477 85.5938 33C85.5938 33.5523 86.0415 34 86.5938 34Z" stroke="#6366F1" stroke-width="2" stroke-linecap="round" stroke-linejoin="round"/>
<path d="M69.6438 14.0498H71.6438L74.3038 26.4698C74.4014 26.9247 74.6545 27.3313 75.0195 27.6197C75.3846 27.908 75.8387 28.0602 76.3038 28.0498H86.0838C86.539 28.0491 86.9803 27.8931 87.3348 27.6076C87.6894 27.3222 87.9359 26.9243 88.0338 26.4798L89.6838 19.0498H72.7138" stroke="#6366F1" stroke-width="2" stroke-linecap="round" stroke-linejoin="round"/>
</svg>
