<svg width="160" height="64" viewBox="0 0 160 64" fill="none" xmlns="http://www.w3.org/2000/svg">
<rect x="55.5938" width="48" height="48" rx="10" fill="#6366F1" fill-opacity="0.1"/>
<path d="M79.5938 20C84.5644 20 88.5938 18.6569 88.5938 17C88.5938 15.3431 84.5644 14 79.5938 14C74.6232 14 70.5938 15.3431 70.5938 17C70.5938 18.6569 74.6232 20 79.5938 20Z" stroke="#6366F1" stroke-width="2" stroke-linecap="round" stroke-linejoin="round"/>
<path d="M70.5938 17V31C70.5938 31.7956 71.542 32.5587 73.2298 33.1213C74.9177 33.6839 77.2068 34 79.5938 34C81.9807 34 84.2699 33.6839 85.9578 33.1213C87.6456 32.5587 88.5938 31.7956 88.5938 31V17" stroke="#6366F1" stroke-width="2" stroke-linecap="round" stroke-linejoin="round"/>
<path d="M70.5938 24C70.5938 24.7956 71.542 25.5587 73.2298 26.1213C74.9177 26.6839 77.2068 27 79.5938 27C81.9807 27 84.2699 26.6839 85.9578 26.1213C87.6456 25.5587 88.5938 24.7956 88.5938 24" stroke="#6366F1" stroke-width="2" stroke-linecap="round" stroke-linejoin="round"/>
</svg>
