<svg width="160" height="64" viewBox="0 0 160 64" fill="none" xmlns="http://www.w3.org/2000/svg">
<rect x="55.5938" width="48" height="48" rx="10" fill="#6366F1" fill-opacity="0.1"/>
<path d="M69.6558 24.3479C69.5724 24.1234 69.5724 23.8764 69.6558 23.6519C70.4675 21.6837 71.8453 20.0009 73.6145 18.8168C75.3838 17.6326 77.4648 17.0005 79.5938 17.0005C81.7227 17.0005 83.8037 17.6326 85.573 18.8168C87.3423 20.0009 88.7201 21.6837 89.5318 23.6519C89.6151 23.8764 89.6151 24.1234 89.5318 24.3479C88.7201 26.316 87.3423 27.9988 85.573 29.183C83.8037 30.3671 81.7227 30.9993 79.5938 30.9993C77.4648 30.9993 75.3838 30.3671 73.6145 29.183C71.8453 27.9988 70.4675 26.316 69.6558 24.3479Z" stroke="#6366F1" stroke-width="2" stroke-linecap="round" stroke-linejoin="round"/>
<path d="M79.5938 27C81.2506 27 82.5938 25.6569 82.5938 24C82.5938 22.3431 81.2506 21 79.5938 21C77.9369 21 76.5938 22.3431 76.5938 24C76.5938 25.6569 77.9369 27 79.5938 27Z" stroke="#6366F1" stroke-width="2" stroke-linecap="round" stroke-linejoin="round"/>
</svg>
