<svg width="40" height="40" viewBox="0 0 40 40" fill="none" xmlns="http://www.w3.org/2000/svg">
<rect width="40" height="40" rx="10" fill="#6366F1" fill-opacity="0.1"/>
<path d="M22.1133 28.0716C22.145 28.1505 22.2 28.2179 22.2711 28.2646C22.3421 28.3113 22.4257 28.3352 22.5107 28.333C22.5957 28.3308 22.678 28.3027 22.7465 28.2524C22.8151 28.2021 22.8666 28.1321 22.8942 28.0516L28.3108 12.2183C28.3375 12.1445 28.3426 12.0646 28.3255 11.9879C28.3084 11.9113 28.2699 11.8411 28.2144 11.7856C28.1588 11.7301 28.0887 11.6915 28.012 11.6745C27.9354 11.6574 27.8555 11.6625 27.7817 11.6891L11.9483 17.1058C11.8679 17.1334 11.7979 17.1849 11.7476 17.2534C11.6973 17.322 11.6691 17.4043 11.667 17.4893C11.6648 17.5743 11.6887 17.6579 11.7354 17.7289C11.7821 17.7999 11.8494 17.855 11.9283 17.8866L18.5367 20.5366C18.7456 20.6203 18.9354 20.7453 19.0946 20.9043C19.2539 21.0633 19.3793 21.2529 19.4633 21.4616L22.1133 28.0716Z" stroke="#6366F1" stroke-width="1.66667" stroke-linecap="round" stroke-linejoin="round"/>
<path d="M28.2117 11.7891L19.095 20.9049" stroke="#6366F1" stroke-width="1.66667" stroke-linecap="round" stroke-linejoin="round"/>
</svg>
