<svg width="40" height="40" viewBox="0 0 40 40" fill="none" xmlns="http://www.w3.org/2000/svg">
<rect width="40" height="40" rx="10" fill="#6366F1" fill-opacity="0.1"/>
<path d="M12.5 21.6667H15C15.442 21.6667 15.866 21.8423 16.1785 22.1548C16.4911 22.4674 16.6667 22.8913 16.6667 23.3333V25.8333C16.6667 26.2754 16.4911 26.6993 16.1785 27.0118C15.866 27.3244 15.442 27.5 15 27.5H14.1667C13.7246 27.5 13.3007 27.3244 12.9882 27.0118C12.6756 26.6993 12.5 26.2754 12.5 25.8333V20C12.5 18.0109 13.2902 16.1032 14.6967 14.6967C16.1032 13.2902 18.0109 12.5 20 12.5C21.9891 12.5 23.8968 13.2902 25.3033 14.6967C26.7098 16.1032 27.5 18.0109 27.5 20V25.8333C27.5 26.2754 27.3244 26.6993 27.0118 27.0118C26.6993 27.3244 26.2754 27.5 25.8333 27.5H25C24.558 27.5 24.134 27.3244 23.8215 27.0118C23.5089 26.6993 23.3333 26.2754 23.3333 25.8333V23.3333C23.3333 22.8913 23.5089 22.4674 23.8215 22.1548C24.134 21.8423 24.558 21.6667 25 21.6667H27.5" stroke="#6366F1" stroke-width="1.66667" stroke-linecap="round" stroke-linejoin="round"/>
</svg>
