<svg width="20" height="24" viewBox="0 0 20 24" fill="none" xmlns="http://www.w3.org/2000/svg">
<path d="M2.49334 17.6184C2.61587 17.9275 2.64315 18.2662 2.57167 18.5909L1.68417 21.3326C1.65558 21.4716 1.66297 21.6156 1.70565 21.751C1.74834 21.8864 1.82489 22.0086 1.92806 22.1061C2.03123 22.2036 2.1576 22.2732 2.29517 22.3081C2.43275 22.3431 2.57697 22.3423 2.71417 22.3059L5.55834 21.4742C5.86477 21.4135 6.18211 21.44 6.47417 21.5509C8.25366 22.3819 10.2695 22.5577 12.166 22.0473C14.0625 21.5369 15.7177 20.3731 16.8398 18.7612C17.9618 17.1493 18.4784 15.1929 18.2986 13.2372C18.1187 11.2815 17.2539 9.45213 15.8567 8.0719C14.4595 6.69167 12.6198 5.84927 10.662 5.69332C8.70423 5.53737 6.75429 6.07789 5.15621 7.21952C3.55813 8.36115 2.41462 10.0305 1.92742 11.9331C1.44022 13.8357 1.64065 15.8492 2.49334 17.6184Z" stroke="#6366F1" stroke-width="1.66667" stroke-linecap="round" stroke-linejoin="round"/>
</svg>
