<svg width="20" height="24" viewBox="0 0 20 24" fill="none" xmlns="http://www.w3.org/2000/svg">
<path d="M16.6666 14.8335C16.6666 19.0002 13.75 21.0835 10.2833 22.2919C10.1018 22.3534 9.90459 22.3505 9.72498 22.2835C6.24998 21.0835 3.33331 19.0002 3.33331 14.8335V9.00021C3.33331 8.7792 3.42111 8.56724 3.57739 8.41096C3.73367 8.25468 3.94563 8.16688 4.16665 8.16688C5.83331 8.16688 7.91665 7.16688 9.36665 5.90021C9.54319 5.74938 9.76777 5.6665 9.99998 5.6665C10.2322 5.6665 10.4568 5.74938 10.6333 5.90021C12.0916 7.17521 14.1666 8.16688 15.8333 8.16688C16.0543 8.16688 16.2663 8.25468 16.4226 8.41096C16.5788 8.56724 16.6666 8.7792 16.6666 9.00021V14.8335Z" stroke="#6366F1" stroke-width="1.66667" stroke-linecap="round" stroke-linejoin="round"/>
</svg>
