<svg width="20" height="24" viewBox="0 0 20 24" fill="none" xmlns="http://www.w3.org/2000/svg">
<path d="M12.5 5.66675H5C4.55797 5.66675 4.13405 5.84234 3.82149 6.1549C3.50893 6.46746 3.33333 6.89139 3.33333 7.33341V20.6667C3.33333 21.1088 3.50893 21.5327 3.82149 21.8453C4.13405 22.1578 4.55797 22.3334 5 22.3334H15C15.442 22.3334 15.866 22.1578 16.1785 21.8453C16.4911 21.5327 16.6667 21.1088 16.6667 20.6667V9.83341L12.5 5.66675Z" stroke="#6366F1" stroke-width="1.66667" stroke-linecap="round" stroke-linejoin="round"/>
<path d="M11.6667 5.66675V9.00008C11.6667 9.44211 11.8423 9.86603 12.1548 10.1786C12.4674 10.4912 12.8913 10.6667 13.3333 10.6667H16.6667" stroke="#6366F1" stroke-width="1.66667" stroke-linecap="round" stroke-linejoin="round"/>
<path d="M8.33333 11.5H6.66667" stroke="#6366F1" stroke-width="1.66667" stroke-linecap="round" stroke-linejoin="round"/>
<path d="M13.3333 14.8333H6.66667" stroke="#6366F1" stroke-width="1.66667" stroke-linecap="round" stroke-linejoin="round"/>
<path d="M13.3333 18.1667H6.66667" stroke="#6366F1" stroke-width="1.66667" stroke-linecap="round" stroke-linejoin="round"/>
</svg>
