<svg width="20" height="24" viewBox="0 0 20 24" fill="none" xmlns="http://www.w3.org/2000/svg">
<path d="M18.3333 13.9998H16.2667C15.9025 13.9991 15.548 14.1176 15.2576 14.3373C14.9671 14.557 14.7567 14.8658 14.6583 15.2165L12.7 22.1832C12.6874 22.2264 12.6611 22.2645 12.625 22.2915C12.5889 22.3186 12.5451 22.3332 12.5 22.3332C12.4549 22.3332 12.4111 22.3186 12.375 22.2915C12.3389 22.2645 12.3126 22.2264 12.3 22.1832L7.7 5.8165C7.68738 5.77323 7.66106 5.73522 7.625 5.70817C7.58894 5.68112 7.54508 5.6665 7.5 5.6665C7.45492 5.6665 7.41106 5.68112 7.375 5.70817C7.33894 5.73522 7.31262 5.77323 7.3 5.8165L5.34167 12.7832C5.24372 13.1325 5.03448 13.4403 4.74572 13.6598C4.45695 13.8794 4.10443 13.9988 3.74167 13.9998H1.66667" stroke="#6366F1" stroke-width="1.66667" stroke-linecap="round" stroke-linejoin="round"/>
</svg>
