<svg width="16" height="16" viewBox="0 0 16 16" fill="none" xmlns="http://www.w3.org/2000/svg">
<path d="M8.00004 14.6668C6.23193 14.6668 4.53624 13.9645 3.286 12.7142C2.03575 11.464 1.33337 9.76827 1.33337 8.00016C1.33337 6.23205 2.03575 4.53636 3.286 3.28612C4.53624 2.03588 6.23193 1.3335 8.00004 1.3335C9.76815 1.3335 11.4638 1.96564 12.7141 3.09086C13.9643 4.21607 14.6667 5.7422 14.6667 7.3335C14.6667 8.21755 14.3155 9.0654 13.6904 9.69052C13.0653 10.3156 12.2174 10.6668 11.3334 10.6668H9.83337C9.61671 10.6668 9.40433 10.7272 9.22002 10.8411C9.03572 10.955 8.88677 11.118 8.78988 11.3117C8.69298 11.5055 8.65196 11.7225 8.67142 11.9383C8.69088 12.1541 8.77004 12.3602 8.90004 12.5335L9.10004 12.8002C9.23004 12.9735 9.3092 13.1796 9.32866 13.3954C9.34812 13.6112 9.3071 13.8281 9.21021 14.0219C9.11331 14.2157 8.96437 14.3787 8.78006 14.4926C8.59576 14.6065 8.38337 14.6668 8.16671 14.6668H8.00004Z" stroke="white" stroke-width="1.33333" stroke-linecap="round" stroke-linejoin="round"/>
<path d="M8.99996 4.66667C9.18405 4.66667 9.33329 4.51743 9.33329 4.33333C9.33329 4.14924 9.18405 4 8.99996 4C8.81586 4 8.66663 4.14924 8.66663 4.33333C8.66663 4.51743 8.81586 4.66667 8.99996 4.66667Z" fill="white" stroke="white" stroke-width="1.33333" stroke-linecap="round" stroke-linejoin="round"/>
<path d="M11.6667 7.33317C11.8508 7.33317 12 7.18393 12 6.99984C12 6.81574 11.8508 6.6665 11.6667 6.6665C11.4826 6.6665 11.3334 6.81574 11.3334 6.99984C11.3334 7.18393 11.4826 7.33317 11.6667 7.33317Z" fill="white" stroke="white" stroke-width="1.33333" stroke-linecap="round" stroke-linejoin="round"/>
<path d="M4.33333 8.66667C4.51743 8.66667 4.66667 8.51743 4.66667 8.33333C4.66667 8.14924 4.51743 8 4.33333 8C4.14924 8 4 8.14924 4 8.33333C4 8.51743 4.14924 8.66667 4.33333 8.66667Z" fill="white" stroke="white" stroke-width="1.33333" stroke-linecap="round" stroke-linejoin="round"/>
<path d="M5.66671 5.33317C5.8508 5.33317 6.00004 5.18393 6.00004 4.99984C6.00004 4.81574 5.8508 4.6665 5.66671 4.6665C5.48261 4.6665 5.33337 4.81574 5.33337 4.99984C5.33337 5.18393 5.48261 5.33317 5.66671 5.33317Z" fill="white" stroke="white" stroke-width="1.33333" stroke-linecap="round" stroke-linejoin="round"/>
</svg>
