<svg width="20" height="24" viewBox="0 0 20 24" fill="none" xmlns="http://www.w3.org/2000/svg">
<path d="M9.60417 5.91274C9.64069 5.83895 9.6971 5.77685 9.76704 5.73342C9.83699 5.69 9.91767 5.66699 10 5.66699C10.0823 5.66699 10.163 5.69 10.233 5.73342C10.3029 5.77685 10.3593 5.83895 10.3958 5.91274L12.3208 9.8119C12.4476 10.0685 12.6348 10.2906 12.8664 10.4589C13.0979 10.6273 13.3668 10.737 13.65 10.7786L17.955 11.4086C18.0366 11.4204 18.1132 11.4548 18.1762 11.5079C18.2393 11.561 18.2862 11.6307 18.3117 11.7091C18.3372 11.7875 18.3402 11.8714 18.3205 11.9514C18.3008 12.0315 18.259 12.1044 18.2 12.1619L15.0867 15.1936C14.8813 15.3937 14.7277 15.6406 14.639 15.9133C14.5503 16.1859 14.5292 16.476 14.5775 16.7586L15.3125 21.0419C15.3269 21.1234 15.3181 21.2074 15.2871 21.2841C15.2561 21.3609 15.2041 21.4274 15.1371 21.4761C15.0701 21.5247 14.9908 21.5536 14.9082 21.5593C14.8256 21.5651 14.7431 21.5475 14.67 21.5086L10.8217 19.4852C10.5681 19.3521 10.286 19.2825 9.99958 19.2825C9.71318 19.2825 9.43107 19.3521 9.1775 19.4852L5.33 21.5086C5.25694 21.5472 5.1745 21.5646 5.09204 21.5588C5.00959 21.5529 4.93043 21.524 4.86358 21.4754C4.79673 21.4268 4.74486 21.3604 4.71388 21.2838C4.6829 21.2071 4.67405 21.1233 4.68833 21.0419L5.4225 16.7594C5.471 16.4767 5.44999 16.1864 5.36128 15.9136C5.27258 15.6408 5.11884 15.3937 4.91333 15.1936L1.8 12.1627C1.74049 12.1053 1.69833 12.0322 1.6783 11.952C1.65828 11.8717 1.6612 11.7874 1.68673 11.7087C1.71227 11.63 1.75939 11.5601 1.82273 11.5069C1.88607 11.4537 1.96309 11.4193 2.045 11.4077L6.34917 10.7786C6.63271 10.7373 6.90199 10.6278 7.13382 10.4594C7.36565 10.291 7.55309 10.0688 7.68 9.8119L9.60417 5.91274Z" stroke="#6366F1" stroke-width="1.66667" stroke-linecap="round" stroke-linejoin="round"/>
</svg>
