<svg width="20" height="24" viewBox="0 0 20 24" fill="none" xmlns="http://www.w3.org/2000/svg">
<path d="M10 18.9998V8.1665" stroke="#6366F1" stroke-width="1.66667" stroke-linecap="round" stroke-linejoin="round"/>
<path d="M12.5 14.8333C11.779 14.6226 11.1457 14.1839 10.695 13.5829C10.2443 12.982 10.0005 12.2512 10 11.5C9.99955 12.2512 9.7557 12.982 9.305 13.5829C8.8543 14.1839 8.221 14.6226 7.5 14.8333" stroke="#6366F1" stroke-width="1.66667" stroke-linecap="round" stroke-linejoin="round"/>
<path d="M14.665 9.41661C14.8568 9.08452 14.9695 8.71277 14.9946 8.33011C15.0197 7.94745 14.9565 7.56415 14.8097 7.20986C14.663 6.85557 14.4367 6.53978 14.1484 6.28693C13.8601 6.03408 13.5175 5.85094 13.1471 5.75169C12.7766 5.65244 12.3884 5.63973 12.0123 5.71454C11.6361 5.78936 11.2823 5.9497 10.9781 6.18315C10.6738 6.41661 10.4274 6.71692 10.2578 7.06085C10.0882 7.40479 9.99998 7.78313 10 8.16661C10 7.78313 9.91181 7.40479 9.74222 7.06085C9.57262 6.71692 9.32617 6.41661 9.02194 6.18315C8.71771 5.9497 8.36386 5.78936 7.98775 5.71454C7.61164 5.63973 7.22336 5.65244 6.85294 5.75169C6.48253 5.85094 6.13992 6.03408 5.85161 6.28693C5.5633 6.53978 5.33702 6.85557 5.19028 7.20986C5.04353 7.56415 4.98026 7.94745 5.00536 8.33011C5.03046 8.71277 5.14324 9.08452 5.335 9.41661" stroke="#6366F1" stroke-width="1.66667" stroke-linecap="round" stroke-linejoin="round"/>
<path d="M14.9975 8.271C15.4873 8.39694 15.9421 8.6327 16.3273 8.96042C16.7125 9.28814 17.0181 9.69922 17.221 10.1625C17.4238 10.6258 17.5185 11.1292 17.498 11.6346C17.4775 12.1399 17.3422 12.634 17.1025 13.0793" stroke="#6366F1" stroke-width="1.66667" stroke-linecap="round" stroke-linejoin="round"/>
<path d="M15 18.9998C15.7338 18.9998 16.447 18.7576 17.0291 18.3109C17.6112 17.8642 18.0297 17.2379 18.2196 16.5292C18.4095 15.8204 18.3603 15.0688 18.0795 14.3909C17.7987 13.713 17.3021 13.1467 16.6667 12.7798" stroke="#6366F1" stroke-width="1.66667" stroke-linecap="round" stroke-linejoin="round"/>
<path d="M16.6391 18.5693C16.6975 19.0212 16.6627 19.4802 16.5367 19.9181C16.4108 20.356 16.1964 20.7634 15.9068 21.1151C15.6172 21.4669 15.2586 21.7556 14.8531 21.9633C14.4476 22.171 14.0038 22.2934 13.5492 22.3229C13.0945 22.3525 12.6386 22.2884 12.2097 22.1348C11.7807 21.9813 11.3878 21.7414 11.0552 21.43C10.7226 21.1186 10.4573 20.7423 10.2758 20.3244C10.0944 19.9065 10.0005 19.4558 9.99998 19.0002C9.99949 19.4558 9.9056 19.9065 9.72411 20.3244C9.54262 20.7423 9.27739 21.1186 8.94478 21.43C8.61217 21.7414 8.21926 21.9813 7.7903 22.1348C7.36135 22.2884 6.90546 22.3525 6.45079 22.3229C5.99613 22.2934 5.55233 22.171 5.14683 21.9633C4.74132 21.7556 4.38271 21.4669 4.09313 21.1151C3.80356 20.7634 3.58917 20.356 3.46322 19.9181C3.33726 19.4802 3.30241 19.0212 3.36081 18.5693" stroke="#6366F1" stroke-width="1.66667" stroke-linecap="round" stroke-linejoin="round"/>
<path d="M5 18.9998C4.26624 18.9998 3.553 18.7576 2.97089 18.3109C2.38877 17.8642 1.97031 17.2379 1.78039 16.5292C1.59048 15.8204 1.63973 15.0688 1.92051 14.3909C2.20129 13.713 2.6979 13.1467 3.33333 12.7798" stroke="#6366F1" stroke-width="1.66667" stroke-linecap="round" stroke-linejoin="round"/>
<path d="M5.00252 8.271C4.51269 8.39694 4.05794 8.6327 3.67272 8.96042C3.28749 9.28814 2.98189 9.69922 2.77906 10.1625C2.57623 10.6258 2.48149 11.1292 2.50201 11.6346C2.52254 12.1399 2.65779 12.634 2.89752 13.0793" stroke="#6366F1" stroke-width="1.66667" stroke-linecap="round" stroke-linejoin="round"/>
</svg>
