<svg width="20" height="24" viewBox="0 0 20 24" fill="none" xmlns="http://www.w3.org/2000/svg">
<path d="M8.33331 14.8335C8.69119 15.3119 9.14778 15.7078 9.6721 15.9943C10.1964 16.2807 10.7762 16.4511 11.3722 16.4937C11.9681 16.5364 12.5663 16.4504 13.1261 16.2416C13.6859 16.0328 14.1942 15.706 14.6166 15.2835L17.1166 12.7835C17.8756 11.9976 18.2956 10.9451 18.2861 9.85263C18.2766 8.76014 17.8384 7.71509 17.0659 6.94256C16.2934 6.17002 15.2483 5.73182 14.1558 5.72233C13.0633 5.71283 12.0108 6.13281 11.225 6.8918L9.79165 8.3168" stroke="#6366F1" stroke-width="1.66667" stroke-linecap="round" stroke-linejoin="round"/>
<path d="M11.6667 13.1665C11.3088 12.6881 10.8522 12.2922 10.3279 12.0057C9.80353 11.7193 9.22373 11.5489 8.62777 11.5063C8.03182 11.4636 7.43366 11.5496 6.87386 11.7584C6.31406 11.9672 5.80572 12.294 5.38332 12.7165L2.88332 15.2165C2.12432 16.0024 1.70435 17.0549 1.71384 18.1474C1.72334 19.2399 2.16154 20.2849 2.93407 21.0574C3.70661 21.83 4.75166 22.2682 5.84415 22.2777C6.93663 22.2872 7.98914 21.8672 8.77498 21.1082L10.2 19.6832" stroke="#6366F1" stroke-width="1.66667" stroke-linecap="round" stroke-linejoin="round"/>
</svg>
