<svg width="20" height="24" viewBox="0 0 20 24" fill="none" xmlns="http://www.w3.org/2000/svg">
<path d="M10 22.3332C14.6024 22.3332 18.3333 18.6022 18.3333 13.9998C18.3333 9.39746 14.6024 5.6665 10 5.6665C5.39763 5.6665 1.66667 9.39746 1.66667 13.9998C1.66667 18.6022 5.39763 22.3332 10 22.3332Z" stroke="#6366F1" stroke-width="1.66667" stroke-linecap="round" stroke-linejoin="round"/>
<path d="M10 19C12.7614 19 15 16.7614 15 14C15 11.2386 12.7614 9 10 9C7.23858 9 5 11.2386 5 14C5 16.7614 7.23858 19 10 19Z" stroke="#6366F1" stroke-width="1.66667" stroke-linecap="round" stroke-linejoin="round"/>
<path d="M10 15.6668C10.9205 15.6668 11.6667 14.9206 11.6667 14.0002C11.6667 13.0797 10.9205 12.3335 10 12.3335C9.07952 12.3335 8.33333 13.0797 8.33333 14.0002C8.33333 14.9206 9.07952 15.6668 10 15.6668Z" stroke="#6366F1" stroke-width="1.66667" stroke-linecap="round" stroke-linejoin="round"/>
</svg>
