<svg width="20" height="24" viewBox="0 0 20 24" fill="none" xmlns="http://www.w3.org/2000/svg">
<path d="M8.33331 22.3334V16.8584" stroke="#6366F1" stroke-width="1.66667" stroke-linecap="round" stroke-linejoin="round"/>
<path d="M10 13.1665H10.0083" stroke="#6366F1" stroke-width="1.66667" stroke-linecap="round" stroke-linejoin="round"/>
<path d="M10 9.8335H10.0083" stroke="#6366F1" stroke-width="1.66667" stroke-linecap="round" stroke-linejoin="round"/>
<path d="M11.6667 16.8584V22.3334" stroke="#6366F1" stroke-width="1.66667" stroke-linecap="round" stroke-linejoin="round"/>
<path d="M12.5 17.3333C11.7788 16.7924 10.9015 16.5 10 16.5C9.09846 16.5 8.22123 16.7924 7.5 17.3333" stroke="#6366F1" stroke-width="1.66667" stroke-linecap="round" stroke-linejoin="round"/>
<path d="M13.3333 13.1665H13.3416" stroke="#6366F1" stroke-width="1.66667" stroke-linecap="round" stroke-linejoin="round"/>
<path d="M13.3333 9.8335H13.3416" stroke="#6366F1" stroke-width="1.66667" stroke-linecap="round" stroke-linejoin="round"/>
<path d="M6.66669 13.1665H6.67502" stroke="#6366F1" stroke-width="1.66667" stroke-linecap="round" stroke-linejoin="round"/>
<path d="M6.66669 9.8335H6.67502" stroke="#6366F1" stroke-width="1.66667" stroke-linecap="round" stroke-linejoin="round"/>
<path d="M15 5.6665H4.99998C4.07951 5.6665 3.33331 6.4127 3.33331 7.33317V20.6665C3.33331 21.587 4.07951 22.3332 4.99998 22.3332H15C15.9205 22.3332 16.6666 21.587 16.6666 20.6665V7.33317C16.6666 6.4127 15.9205 5.6665 15 5.6665Z" stroke="#6366F1" stroke-width="1.66667" stroke-linecap="round" stroke-linejoin="round"/>
</svg>
