<svg width="20" height="24" viewBox="0 0 20 24" fill="none" xmlns="http://www.w3.org/2000/svg">
<path d="M8.55664 21.5C8.70293 21.7533 8.91332 21.9637 9.16668 22.11C9.42003 22.2563 9.70743 22.3333 9.99997 22.3333C10.2925 22.3333 10.5799 22.2563 10.8333 22.11C11.0866 21.9637 11.297 21.7533 11.4433 21.5" stroke="#6366F1" stroke-width="1.66667" stroke-linecap="round" stroke-linejoin="round"/>
<path d="M2.71833 16.7715C2.60947 16.8908 2.53763 17.0392 2.51155 17.1986C2.48547 17.358 2.50627 17.5215 2.57142 17.6693C2.63658 17.8171 2.74328 17.9428 2.87855 18.0311C3.01381 18.1193 3.17182 18.1664 3.33333 18.1665H16.6667C16.8282 18.1666 16.9862 18.1197 17.1216 18.0316C17.2569 17.9435 17.3637 17.818 17.4291 17.6703C17.4944 17.5226 17.5154 17.3591 17.4895 17.1997C17.4637 17.0402 17.392 16.8918 17.2833 16.7723C16.175 15.6298 15 14.4157 15 10.6665C15 9.34042 14.4732 8.06865 13.5355 7.13097C12.5979 6.19329 11.3261 5.6665 10 5.6665C8.67392 5.6665 7.40215 6.19329 6.46447 7.13097C5.52679 8.06865 5 9.34042 5 10.6665C5 14.4157 3.82417 15.6298 2.71833 16.7715Z" stroke="#6366F1" stroke-width="1.66667" stroke-linecap="round" stroke-linejoin="round"/>
</svg>
