<svg width="20" height="24" viewBox="0 0 20 24" fill="none" xmlns="http://www.w3.org/2000/svg">
<path d="M1.71833 14.2901C1.64888 14.103 1.64888 13.8972 1.71833 13.7101C2.39475 12.0699 3.54293 10.6676 5.01731 9.6808C6.49169 8.69402 8.22587 8.16724 10 8.16724C11.7741 8.16724 13.5083 8.69402 14.9827 9.6808C16.4571 10.6676 17.6053 12.0699 18.2817 13.7101C18.3511 13.8972 18.3511 14.103 18.2817 14.2901C17.6053 15.9302 16.4571 17.3325 14.9827 18.3193C13.5083 19.3061 11.7741 19.8329 10 19.8329C8.22587 19.8329 6.49169 19.3061 5.01731 18.3193C3.54293 17.3325 2.39475 15.9302 1.71833 14.2901Z" stroke="#6366F1" stroke-width="1.66667" stroke-linecap="round" stroke-linejoin="round"/>
<path d="M10 16.5C11.3807 16.5 12.5 15.3807 12.5 14C12.5 12.6193 11.3807 11.5 10 11.5C8.61929 11.5 7.5 12.6193 7.5 14C7.5 15.3807 8.61929 16.5 10 16.5Z" stroke="#6366F1" stroke-width="1.66667" stroke-linecap="round" stroke-linejoin="round"/>
</svg>
