<svg width="16" height="16" viewBox="0 0 16 16" fill="none" xmlns="http://www.w3.org/2000/svg">
<path d="M9.748 11.9313L2.628 9.98926" stroke="#0A0A0A" stroke-width="1.33333" stroke-linecap="round" stroke-linejoin="round"/>
<path d="M12.2507 1.74799C12.3821 1.61658 12.5381 1.51234 12.7098 1.44122C12.8815 1.3701 13.0655 1.3335 13.2513 1.3335C13.4372 1.3335 13.6212 1.3701 13.7929 1.44122C13.9646 1.51234 14.1206 1.61658 14.252 1.74799C14.3834 1.8794 14.4877 2.0354 14.5588 2.2071C14.6299 2.37879 14.6665 2.56281 14.6665 2.74865C14.6665 2.93449 14.6299 3.11851 14.5588 3.29021C14.4877 3.4619 14.3834 3.61791 14.252 3.74932L11.5733 6.42865C11.5108 6.49116 11.4757 6.57593 11.4757 6.66432C11.4757 6.75271 11.5108 6.83748 11.5733 6.89999L12.2027 7.52932C12.5039 7.83062 12.6732 8.23925 12.6732 8.66532C12.6732 9.09139 12.5039 9.50002 12.2027 9.80132L11.5733 10.4307C11.5108 10.4931 11.4261 10.5282 11.3377 10.5282C11.2493 10.5282 11.1645 10.4931 11.102 10.4307L5.56934 4.89865C5.50685 4.83614 5.47174 4.75137 5.47174 4.66299C5.47174 4.5746 5.50685 4.48983 5.56934 4.42732L6.19867 3.79799C6.49997 3.49673 6.9086 3.32749 7.33467 3.32749C7.76074 3.32749 8.16937 3.49673 8.47067 3.79799L9.1 4.42732C9.16251 4.48981 9.24728 4.52491 9.33567 4.52491C9.42406 4.52491 9.50883 4.48981 9.57134 4.42732L12.2507 1.74799Z" stroke="#0A0A0A" stroke-width="1.33333" stroke-linecap="round" stroke-linejoin="round"/>
<path d="M6 5.3335C4.79733 7.14016 3.35333 7.64016 1.61133 7.9655C1.55355 7.97605 1.4995 8.00148 1.45454 8.03928C1.40957 8.07708 1.37523 8.12595 1.35491 8.18106C1.33459 8.23618 1.32898 8.29564 1.33864 8.35358C1.3483 8.41153 1.3729 8.46595 1.41 8.5115L6.29 14.4335C6.38912 14.5388 6.51978 14.609 6.66228 14.6335C6.80477 14.658 6.95138 14.6356 7.08 14.5695C8.49 13.6035 10.6667 11.1948 10.6667 10.0002" stroke="#0A0A0A" stroke-width="1.33333" stroke-linecap="round" stroke-linejoin="round"/>
</svg>
