<svg width="20" height="24" viewBox="0 0 20 24" fill="none" xmlns="http://www.w3.org/2000/svg">
<path d="M13.3334 21.5V19.8333C13.3334 18.9493 12.9822 18.1014 12.357 17.4763C11.7319 16.8512 10.8841 16.5 10 16.5H5.00002C4.11597 16.5 3.26812 16.8512 2.643 17.4763C2.01788 18.1014 1.66669 18.9493 1.66669 19.8333V21.5" stroke="#6366F1" stroke-width="1.66667" stroke-linecap="round" stroke-linejoin="round"/>
<path d="M13.3333 6.60645C14.0481 6.79175 14.6811 7.20917 15.133 7.79316C15.585 8.37716 15.8301 9.09469 15.8301 9.83311C15.8301 10.5715 15.585 11.2891 15.133 11.8731C14.6811 12.4571 14.0481 12.8745 13.3333 13.0598" stroke="#6366F1" stroke-width="1.66667" stroke-linecap="round" stroke-linejoin="round"/>
<path d="M18.3333 21.5001V19.8334C18.3328 19.0948 18.0869 18.3774 17.6345 17.7937C17.182 17.2099 16.5484 16.793 15.8333 16.6084" stroke="#6366F1" stroke-width="1.66667" stroke-linecap="round" stroke-linejoin="round"/>
<path d="M7.50002 13.1667C9.34097 13.1667 10.8334 11.6743 10.8334 9.83333C10.8334 7.99238 9.34097 6.5 7.50002 6.5C5.65907 6.5 4.16669 7.99238 4.16669 9.83333C4.16669 11.6743 5.65907 13.1667 7.50002 13.1667Z" stroke="#6366F1" stroke-width="1.66667" stroke-linecap="round" stroke-linejoin="round"/>
</svg>
